<svg width="28" height="28" viewBox="0 0 28 28" fill="none" xmlns="http://www.w3.org/2000/svg">
<path d="M6.80091 24.4445V9.48138C6.80091 8.73492 7.07235 8.10156 7.61523 7.5813C8.15811 7.06104 8.80278 6.80091 9.54924 6.80091H24.4445C25.1909 6.80091 25.8299 7.0667 26.3615 7.59827C26.8931 8.12983 27.1589 8.76885 27.1589 9.51531V20.3729L20.3729 27.1589H9.51531C8.76885 27.1589 8.12983 26.8931 7.59827 26.3615C7.0667 25.8299 6.80091 25.1909 6.80091 24.4445ZM0.0488591 5.78301C-0.0868606 5.03656 0.060169 4.36361 0.489948 3.76418C0.919727 3.16476 1.50785 2.79718 2.2543 2.66146L16.9799 0.0488591C17.7263 -0.0868606 18.3993 0.060169 18.9987 0.489948C19.5981 0.919727 19.9657 1.50785 20.1014 2.2543L20.4407 4.08652H17.6585L17.421 2.72932L2.72932 5.34193L4.08652 13.0101V22.4765C3.7246 22.273 3.41358 22.0015 3.15345 21.6622C2.89332 21.3229 2.72932 20.9384 2.66146 20.5086L0.0488591 5.78301ZM9.51531 9.51531V24.4445H19.0157L24.4445 19.0157V9.51531H9.51531ZM15.6227 22.4087H18.3371V18.3371H22.4087V15.6227H18.3371V11.5511H15.6227V15.6227H11.5511V18.3371H15.6227V22.4087Z" fill="white"/>
</svg>
