<svg width="25" height="25" viewBox="0 0 25 25" fill="none" xmlns="http://www.w3.org/2000/svg">
<path d="M2.71439 24.4295C1.96793 24.4295 1.32892 24.1638 0.797353 23.6322C0.265784 23.1006 0 22.4616 0 21.7151V5.42879H19.0008V24.4295H2.71439ZM21.7151 24.4295V21.7151H24.4295C24.4295 22.4616 24.1638 23.1006 23.6322 23.6322C23.1006 24.1638 22.4616 24.4295 21.7151 24.4295ZM2.71439 20.3579H16.2864L11.6719 14.2506L8.14318 19.0008L5.97166 16.0828L2.71439 20.3579ZM21.7151 19.0008V16.2864H24.4295V19.0008H21.7151ZM21.7151 13.572V10.8576H24.4295V13.572H21.7151ZM21.7151 8.14318V5.42879H24.4295V8.14318H21.7151ZM0 2.71439C0 1.96793 0.265784 1.32892 0.797353 0.797353C1.32892 0.265784 1.96793 0 2.71439 0V2.71439H0ZM5.42879 2.71439V0H8.14318V2.71439H5.42879ZM10.8576 2.71439V0H13.572V2.71439H10.8576ZM16.2864 2.71439V0H19.0008V2.71439H16.2864ZM21.7151 2.71439V0C22.4616 0 23.1006 0.265784 23.6322 0.797353C24.1638 1.32892 24.4295 1.96793 24.4295 2.71439H21.7151Z" fill="white"/>
</svg>
