<svg width="25" height="30" viewBox="0 0 25 30" fill="none" xmlns="http://www.w3.org/2000/svg">
<path d="M8.17882 3.38297V0.668579H16.322V3.38297H8.17882ZM12.2504 29.1697C10.5539 29.1697 8.96487 28.8474 7.48326 28.2027C6.00165 27.558 4.70666 26.6815 3.59829 25.5731C2.48991 24.4648 1.61904 23.1698 0.985682 21.6882C0.352324 20.2066 0.0356445 18.6288 0.0356445 16.9549C0.0356445 15.2811 0.357979 13.7033 1.00265 12.2217C1.64732 10.7401 2.52384 9.44512 3.63222 8.33674C4.74059 7.22836 6.03558 6.35184 7.51719 5.70717C8.9988 5.0625 10.5765 4.74017 12.2504 4.74017C13.6755 4.74017 15.0327 4.97768 16.322 5.4527C17.6113 5.92772 18.7876 6.595 19.8507 7.45456L21.8187 5.48663L23.7187 7.3867L21.8187 9.35464C22.633 10.4178 23.2776 11.594 23.7527 12.8833C24.2277 14.1727 24.4652 15.5299 24.4652 16.9549C24.4652 18.6288 24.1485 20.2066 23.5151 21.6882C22.8818 23.1698 22.0109 24.4648 20.9025 25.5731C19.7942 26.6815 18.4992 27.558 17.0176 28.2027C15.536 28.8474 13.9469 29.1697 12.2504 29.1697ZM12.2504 14.2405H21.3436C20.9365 12.8381 20.2409 11.6053 19.2569 10.5422C18.273 9.47905 17.1137 8.67604 15.7791 8.13316L12.2504 14.2405ZM9.87532 15.5977L14.4219 7.726C13.0874 7.3867 11.7132 7.35843 10.2994 7.64118C8.8857 7.92393 7.56809 8.54032 6.34661 9.49036L9.87532 15.5977ZM2.88576 18.3121H9.87532L5.32871 10.4404C4.37867 11.5035 3.6718 12.708 3.20809 14.0539C2.74438 15.3998 2.63694 16.8192 2.88576 18.3121ZM8.7217 25.7767L12.2504 19.6693H3.1572C3.56436 21.0718 4.25992 22.3046 5.24389 23.3677C6.22785 24.4308 7.38713 25.2338 8.7217 25.7767ZM10.0789 26.1839C11.5718 26.5684 13.0195 26.5854 14.4219 26.2348C15.8244 25.8842 17.0685 25.2791 18.1542 24.4195L14.6255 18.3121L10.0789 26.1839ZM19.1721 23.4695C20.1674 22.3837 20.8856 21.1679 21.3267 19.822C21.7678 18.4761 21.8639 17.068 21.6151 15.5977H14.6255L19.1721 23.4695Z" fill="white"/>
</svg>
