<svg width="28" height="28" viewBox="0 0 28 28" fill="none" xmlns="http://www.w3.org/2000/svg">
<path d="M20.3579 8.14318C19.9734 8.14318 19.6511 8.01311 19.3909 7.75299C19.1308 7.49286 19.0008 7.17052 19.0008 6.78598C19.0008 6.40144 19.1308 6.07911 19.3909 5.81898C19.6511 5.55885 19.9734 5.42879 20.3579 5.42879C20.7425 5.42879 21.0648 5.55885 21.325 5.81898C21.5851 6.07911 21.7151 6.40144 21.7151 6.78598C21.7151 7.17052 21.5851 7.49286 21.325 7.75299C21.0648 8.01311 20.7425 8.14318 20.3579 8.14318ZM9.50038 16.2864L13.1648 11.5362L15.2685 14.2506L18.39 10.179L23.0723 16.2864H9.50038ZM2.71439 27.1439C1.96793 27.1439 1.32892 26.8781 0.797353 26.3466C0.265784 25.815 0 25.176 0 24.4295V5.42879H2.71439V24.4295H21.7151V27.1439H2.71439ZM5.42879 10.0093V2.71439C5.42879 1.96793 5.69457 1.32892 6.22614 0.797353C6.75771 0.265784 7.39672 0 8.14318 0H14.9292V2.71439H8.14318V10.0093H5.42879ZM8.14318 21.7151C7.39672 21.7151 6.75771 21.4494 6.22614 20.9178C5.69457 20.3862 5.42879 19.7472 5.42879 19.0008V12.7237H8.14318V19.0008H14.9292V21.7151H8.14318ZM17.6436 21.7151V19.0008H24.4295V12.7237H27.1439V19.0008C27.1439 19.7472 26.8781 20.3862 26.3466 20.9178C25.815 21.4494 25.176 21.7151 24.4295 21.7151H17.6436ZM24.4295 10.0093V2.71439H17.6436V0H24.4295C25.176 0 25.815 0.265784 26.3466 0.797353C26.8781 1.32892 27.1439 1.96793 27.1439 2.71439V10.0093H24.4295Z" fill="white"/>
</svg>
